<svg xmlns="http://www.w3.org/2000/svg" version="1.1" xmlns:xlink="http://www.w3.org/1999/xlink" xmlns:svgjs="http://svgjs.dev/svgjs" width="2000" height="323" viewBox="0 0 2000 323"><g transform="matrix(1,0,0,1,-1.2121212121212466,-2.002130750605346)"><svg viewBox="0 0 396 64" data-background-color="#ffffff" preserveAspectRatio="xMidYMid meet" height="323" width="2000" xmlns="http://www.w3.org/2000/svg" xmlns:xlink="http://www.w3.org/1999/xlink"><g id="tight-bounds" transform="matrix(1,0,0,1,0.2400000000000091,0.3967070217917694)"><svg viewBox="0 0 395.52 63.206585956416454" height="63.206585956416454" width="395.52"><g><svg viewBox="0 0 395.52 63.206585956416454" height="63.206585956416454" width="395.52"><g><svg viewBox="0 0 395.52 63.206585956416454" height="63.206585956416454" width="395.52"><g id="textblocktransform"><svg viewBox="0 0 395.52 63.206585956416454" height="63.206585956416454" width="395.52" id="textblock"><g><svg viewBox="0 0 395.52 63.206585956416454" height="63.206585956416454" width="395.52"><g transform="matrix(1,0,0,1,0,0)"><svg width="395.52" viewBox="2.35 -32.35 208.43 33" height="63.206585956416454" data-palette-color="#000000"><g class="wordmark-text-0" data-fill-palette-color="primary" id="text-0"><path d="M13.75 0.65L13.75 0.65Q8.6 0.65 5.53-2.38 2.45-5.4 2.45-11.3L2.45-11.3Q2.45-13.95 3.18-16.8 3.9-19.65 5.6-22.45L5.6-22.45Q4.65-21.6 3.8-21.6L3.8-21.6Q2.35-21.6 2.35-23.9L2.35-23.9Q2.35-25.55 3.05-26.55 3.75-27.55 4.4-28.15L4.4-28.15Q5.5-29.1 7.2-30.08 8.9-31.05 11.2-31.7 13.5-32.35 16.35-32.35L16.35-32.35Q23.05-32.35 26.43-28.58 29.8-24.8 29.8-18.1L29.8-18.1Q29.8-14.15 28.65-10.75 27.5-7.35 25.38-4.8 23.25-2.25 20.3-0.8 17.35 0.65 13.75 0.65ZM15.5-4.95L15.5-4.95Q18-4.95 20.43-6.1 22.85-7.25 24.43-9.78 26-12.3 26-16.35L26-16.35Q26-20.15 24.55-22.43 23.1-24.7 20.88-25.73 18.65-26.75 16.2-26.75L16.2-26.75Q14.35-26.75 12.88-26.28 11.4-25.8 10.25-25.25L10.25-25.25Q8.95-23.25 7.8-20.38 6.65-17.5 6.65-14.3L6.65-14.3Q6.65-11.1 7.9-9.03 9.15-6.95 11.18-5.95 13.2-4.95 15.5-4.95ZM36.5 0.55L36.5 0.55Q34.7 0.55 34.9-0.65L34.9-0.65Q35.45-2.8 35.82-5.03 36.2-7.25 36.2-9.3L36.2-9.3Q36.2-11.95 35.87-13.18 35.55-14.4 35-14.88 34.45-15.35 33.65-15.6L33.65-15.6Q33.3-15.75 33.02-16 32.75-16.25 32.75-16.7L32.75-16.7Q32.75-17.4 33.3-18.25 33.85-19.1 34.87-19.73 35.9-20.35 37.2-20.35L37.2-20.35Q38.9-20.35 39.55-19.18 40.2-18 40.2-16.1L40.2-16.1Q40.2-14.85 39.95-13.3 39.7-11.75 39.45-10.5L39.45-10.5 39.55-10.45Q40.35-13.1 41.52-15.35 42.7-17.6 44.37-19 46.05-20.4 48.25-20.4L48.25-20.4Q50.5-20.4 51.8-18.88 53.1-17.35 53.1-14.4L53.1-14.4 53.1-13.3Q54.55-16.35 56.62-18.4 58.7-20.45 61.65-20.45L61.65-20.45Q64.05-20.45 65.4-18.85 66.75-17.25 66.75-14.85L66.75-14.85Q66.75-13.9 66.55-13.03 66.35-12.15 66.1-11.3L66.1-11.3Q65.9-10.5 65.7-9.65 65.5-8.8 65.5-7.95L65.5-7.95Q65.5-4.95 68.05-4.05L68.05-4.05Q68.4-3.9 68.6-3.73 68.8-3.55 68.8-3.1L68.8-3.1Q68.8-2.65 68.52-1.8 68.25-0.95 67.45-0.23 66.65 0.5 65.15 0.5L65.15 0.5Q63.2 0.5 62.15-0.93 61.1-2.35 61.1-4.55L61.1-4.55Q61.1-5.65 61.3-6.85 61.5-8.05 61.8-9.15L61.8-9.15Q62.05-10.15 62.22-11.05 62.4-11.95 62.4-12.6L62.4-12.6Q62.4-13.8 61.82-14.35 61.25-14.9 60.3-14.9L60.3-14.9Q58.7-14.9 57.42-13.9 56.15-12.9 55.17-11.3 54.2-9.7 53.5-7.8L53.5-7.8Q53.55-7.35 53.57-6.63 53.6-5.9 53.6-5.35L53.6-5.35Q53.6-4.4 53.47-3.35 53.35-2.3 53-1.6L53-1.6Q52.6-0.65 51.82-0.05 51.05 0.55 49.75 0.55L49.75 0.55Q49.2 0.55 48.7 0.33 48.2 0.1 48.2-0.4L48.2-0.4Q48.2-0.6 48.5-2.18 48.8-3.75 49.1-6.05 49.4-8.35 49.4-10.55L49.4-10.55Q49.4-12.95 48.9-13.88 48.4-14.8 47.4-14.8L47.4-14.8Q46.15-14.8 45.02-13.75 43.9-12.7 42.97-11.05 42.05-9.4 41.37-7.6 40.7-5.8 40.3-4.25L40.3-4.25 40.3-3.7Q40.3-1.85 39.27-0.65 38.25 0.55 36.5 0.55ZM74.8 0.55L74.8 0.55Q73 0.55 73.19-0.65L73.19-0.65Q73.75-2.8 74.12-5.03 74.5-7.25 74.5-9.3L74.5-9.3Q74.5-11.95 74.17-13.18 73.84-14.4 73.3-14.88 72.75-15.35 71.94-15.6L71.94-15.6Q71.59-15.75 71.32-16 71.05-16.25 71.05-16.7L71.05-16.7Q71.05-17.4 71.59-18.25 72.14-19.1 73.17-19.73 74.19-20.35 75.5-20.35L75.5-20.35Q77.19-20.35 77.84-19.18 78.5-18 78.5-16.1L78.5-16.1Q78.5-14.85 78.25-13.3 78-11.75 77.75-10.5L77.75-10.5 77.89-10.45Q78.89-13.1 80.32-15.38 81.75-17.65 83.64-19.05 85.55-20.45 88.05-20.45L88.05-20.45Q90.69-20.45 92.09-18.85 93.5-17.25 93.5-14.85L93.5-14.85Q93.5-13.85 93.27-12.95 93.05-12.05 92.8-11.2L92.8-11.2Q92.55-10.4 92.37-9.55 92.19-8.7 92.19-7.85L92.19-7.85Q92.19-5 94.89-4L94.89-4Q95.59-3.7 95.59-3.1L95.59-3.1Q95.59-2.65 95.3-1.8 95-0.95 94.19-0.23 93.39 0.5 91.84 0.5L91.84 0.5Q89.84 0.5 88.75-0.93 87.64-2.35 87.64-4.55L87.64-4.55Q87.64-5.8 87.92-7.08 88.19-8.35 88.5-9.45L88.5-9.45Q88.69-10.3 88.87-11.13 89.05-11.95 89.05-12.6L89.05-12.6Q89.05-14.9 86.64-14.9L86.64-14.9Q84.59-14.9 83.05-13.38 81.5-11.85 80.39-9.55 79.3-7.25 78.59-4.9L78.59-4.9 78.59-3.7Q78.59-1.85 77.57-0.65 76.55 0.55 74.8 0.55ZM102.99-24.85L102.99-24.85Q101.59-24.9 100.74-25.7 99.89-26.5 99.89-27.95L99.89-27.95Q99.94-29.5 100.94-30.48 101.94-31.45 103.49-31.4L103.49-31.4Q104.94-31.35 105.77-30.55 106.59-29.75 106.54-28.3L106.54-28.3Q106.49-26.8 105.54-25.83 104.59-24.85 102.99-24.85ZM103.04 0.5L103.04 0.5Q101.54 0.5 100.69-0.33 99.84-1.15 99.84-3.15L99.84-3.15Q99.84-4.3 100.07-5.4 100.29-6.5 100.59-7.55L100.59-7.55Q100.94-8.65 101.17-9.8 101.39-10.95 101.39-12.25L101.39-12.25Q101.39-13.15 101.14-13.98 100.89-14.8 100.04-15.2L100.04-15.2Q99.39-15.55 98.92-15.93 98.44-16.3 98.44-16.9L98.44-16.9Q98.44-17.6 99.09-18.4 99.74-19.2 100.82-19.78 101.89-20.35 103.04-20.35L103.04-20.35Q104.29-20.35 104.87-19.7 105.44-19.05 105.64-18.05 105.84-17.05 105.84-16L105.84-16Q105.84-14.4 105.59-12.88 105.34-11.35 105.09-10.05L105.09-10.05Q104.89-9.1 104.79-8.3 104.69-7.5 104.69-6.8L104.69-6.8Q104.69-5.55 105.29-4.93 105.89-4.3 106.99-3.75L106.99-3.75Q107.44-3.5 107.44-3L107.44-3Q107.44-2.6 107.04-1.75 106.64-0.9 105.67-0.2 104.69 0.5 103.04 0.5ZM119.09 0.65L119.09 0.65Q116.64 0.65 114.57-0.08 112.49-0.8 111.24-2.1 109.99-3.4 109.99-5.15L109.99-5.15Q109.99-6.3 110.54-7.18 111.09-8.05 112.04-8.05L112.04-8.05Q112.64-8.05 113.29-7.6L113.29-7.6Q114.54-6.5 116.52-5.68 118.49-4.85 120.74-4.85L120.74-4.85Q123.69-4.85 125.57-6.03 127.44-7.2 127.44-9.2L127.44-9.2Q127.44-11.1 125.69-11.95 123.94-12.8 120.84-13.55L120.84-13.55Q118.54-14.1 116.42-14.95 114.29-15.8 112.92-17.32 111.54-18.85 111.54-21.4L111.54-21.4Q111.54-23.35 112.39-25.28 113.24-27.2 114.89-28.8 116.54-30.4 118.89-31.38 121.24-32.35 124.19-32.35L124.19-32.35Q126.39-32.35 128.22-31.85 130.04-31.35 131.12-30.45 132.19-29.55 132.19-28.25L132.19-28.25Q132.19-27.25 131.64-26.5 131.09-25.75 130.34-25.33 129.59-24.9 129.04-24.9L129.04-24.9Q128.54-24.9 127.69-25.35L127.69-25.35Q126.29-26.1 124.57-26.53 122.84-26.95 121.54-26.95L121.54-26.95Q119.09-26.95 117.57-25.88 116.04-24.8 116.04-23.35L116.04-23.35Q116.04-21.75 117.97-20.68 119.89-19.6 124.89-18.4L124.89-18.4Q128.29-17.5 130.19-15.93 132.09-14.35 132.09-10.95L132.09-10.95Q132.09-7.9 130.47-5.25 128.84-2.6 125.92-0.98 122.99 0.65 119.09 0.65ZM143.19 0.65L143.19 0.65Q140.14 0.65 138.81-1.38 137.49-3.4 137.49-6.6L137.49-6.6Q137.49-7.75 137.61-8.85 137.74-9.95 137.89-11.05L137.89-11.05Q138.04-12.15 138.19-13.2 138.34-14.25 138.44-15.2L138.44-15.2Q137.39-14.9 136.34-14.9L136.34-14.9Q135.24-14.9 135.24-15.8L135.24-15.8Q135.24-16.75 136.09-18.13 136.94-19.5 138.21-20.85 139.49-22.2 140.76-23.13 142.04-24.05 142.94-24.05L142.94-24.05Q144.04-24.05 144.04-22.15L144.04-22.15Q144.04-21.65 143.96-21.13 143.89-20.6 143.79-20.05L143.79-20.05Q144.74-20.25 145.71-20.4 146.69-20.55 147.59-20.55L147.59-20.55Q148.74-20.55 149.36-20.15 149.99-19.75 149.99-18.6L149.99-18.6Q149.99-17.4 149.41-16.2 148.84-15 148.14-15L148.14-15Q147.99-15 147.64-15.05 147.29-15.1 146.79-15.2L146.79-15.2Q146.14-15.35 145.14-15.5 144.14-15.65 142.74-15.65L142.74-15.65Q142.39-14.1 142.11-12.48 141.84-10.85 141.84-9.55L141.84-9.55Q141.84-6.65 143.29-5.6 144.74-4.55 147.49-4.55L147.49-4.55Q148.34-4.55 148.69-4.28 149.04-4 149.04-3.3L149.04-3.3Q149.04-1.65 147.34-0.5 145.64 0.65 143.19 0.65ZM160.54 0.65L160.54 0.65Q157.09 0.65 155.01-1.23 152.94-3.1 152.94-6.75L152.94-6.75Q152.94-8.45 153.41-10.05 153.89-11.65 154.69-13.05L154.69-13.05Q153.89-12.55 153.49-12.55L153.49-12.55Q152.89-12.55 152.66-13.23 152.44-13.9 152.44-14.55L152.44-14.55Q152.44-15.7 152.91-16.38 153.39-17.05 153.84-17.4L153.84-17.4Q154.89-18.3 157.14-19.38 159.39-20.45 162.54-20.45L162.54-20.45Q166.84-20.45 169.21-18.05 171.59-15.65 171.59-11.35L171.59-11.35Q171.59-8 170.19-5.28 168.79-2.55 166.31-0.95 163.84 0.65 160.54 0.65ZM162.09-4.45L162.09-4.45Q164.59-4.45 166.31-6.03 168.04-7.6 168.04-10.2L168.04-10.2Q168.04-12.9 166.29-14.05 164.54-15.2 162.24-15.2L162.24-15.2Q161.19-15.2 160.34-15 159.49-14.8 158.74-14.5L158.74-14.5Q158.04-13.5 157.49-12.25 156.94-11 156.94-9.5L156.94-9.5Q156.94-7 158.44-5.73 159.94-4.45 162.09-4.45ZM178.43 0.55L178.43 0.55Q177.63 0.55 177.16 0.28 176.68 0 176.83-0.65L176.83-0.65Q177.38-2.8 177.76-5.03 178.13-7.25 178.13-9.3L178.13-9.3Q178.13-11.95 177.81-13.18 177.48-14.4 176.93-14.88 176.38-15.35 175.58-15.6L175.58-15.6Q175.23-15.75 174.96-16 174.68-16.25 174.68-16.7L174.68-16.7Q174.68-17.4 175.23-18.25 175.78-19.1 176.78-19.73 177.78-20.35 179.08-20.35L179.08-20.35Q180.78-20.35 181.46-19.18 182.13-18 182.13-16.1L182.13-16.1Q183.03-18.1 184.36-19.28 185.68-20.45 187.68-20.45L187.68-20.45Q189.03-20.45 189.93-19.85 190.83-19.25 190.83-17.9L190.83-17.9Q190.83-16.55 189.96-15.38 189.08-14.2 188.18-14.2L188.18-14.2Q188.03-14.2 187.83-14.25 187.63-14.3 187.48-14.5L187.48-14.5Q186.83-15.3 185.88-15.3L185.88-15.3Q184.43-15.3 183.33-13.4 182.23-11.5 182.13-8.15L182.13-8.15Q182.18-6.9 182.21-5.6 182.23-4.3 182.23-3.7L182.23-3.7Q182.23-1.85 181.21-0.65 180.18 0.55 178.43 0.55ZM200.73 0.65L200.73 0.65Q196.93 0.65 194.81-1.53 192.68-3.7 192.68-7.6L192.68-7.6Q192.68-11.15 194.23-14.05 195.78-16.95 198.41-18.68 201.03-20.4 204.18-20.4L204.18-20.4Q207.18-20.4 208.98-18.93 210.78-17.45 210.78-15L210.78-15Q210.78-13.05 209.58-11.4 208.38-9.75 206.38-8.78 204.38-7.8 201.93-7.8L201.93-7.8Q198.93-7.8 197.03-9.15L197.03-9.15Q197.08-6.85 198.61-5.45 200.13-4.05 202.53-4.05L202.53-4.05Q203.98-4.05 205.51-4.58 207.03-5.1 208.13-6L208.13-6Q208.83-6.6 209.43-6.6L209.43-6.6Q209.93-6.6 210.26-6.28 210.58-5.95 210.58-5.45L210.58-5.45Q210.58-4.35 208.68-2.55L208.68-2.55Q205.33 0.65 200.73 0.65ZM201.48-11.1L201.48-11.1Q203.28-11.1 204.48-11.85 205.68-12.6 205.68-13.75L205.68-13.75Q205.68-14.7 204.88-15.23 204.08-15.75 202.68-15.75L202.68-15.75Q200.83-15.75 199.46-14.78 198.08-13.8 197.48-12.05L197.48-12.05Q198.18-11.6 199.28-11.35 200.38-11.1 201.48-11.1Z" fill="#000000" data-fill-palette-color="primary"></path></g></svg></g></svg></g></svg></g></svg></g><g></g></svg></g><defs></defs></svg><rect width="395.52" height="63.206585956416454" fill="none" stroke="none" visibility="hidden"></rect></g></svg></g></svg>