<svg xmlns="http://www.w3.org/2000/svg" version="1.1" xmlns:xlink="http://www.w3.org/1999/xlink" xmlns:svgjs="http://svgjs.dev/svgjs" width="2000" height="626" viewBox="0 0 2000 626"><g transform="matrix(1,0,0,1,-1.2121212121212466,-0.9240396893580396)"><svg viewBox="0 0 396 124" data-background-color="#353b48" preserveAspectRatio="xMidYMid meet" height="626" width="2000" xmlns="http://www.w3.org/2000/svg" xmlns:xlink="http://www.w3.org/1999/xlink"><g id="tight-bounds" transform="matrix(1,0,0,1,0.2400000000000091,0.18303661578337937)"><svg viewBox="0 0 395.52 123.63392676843324" height="123.63392676843324" width="395.52"><g><svg viewBox="0 0 631.0152697566731 197.24639879363792" height="123.63392676843324" width="395.52"><g transform="matrix(1,0,0,1,0,58.11837154155709)"><svg viewBox="0 0 395.52 81.00965571052375" height="81.00965571052375" width="395.52"><g id="textblocktransform"><svg viewBox="0 0 395.52 81.00965571052375" height="81.00965571052375" width="395.52" id="textblock"><g><svg viewBox="0 0 395.52 81.00965571052375" height="81.00965571052375" width="395.52"><g transform="matrix(1,0,0,1,0,0)"><svg width="395.52" viewBox="3.03 -44.58 249.58 51.27" height="81.00965571052375" data-palette-color="#f76c5b"><g class="wordmark-text-0" data-fill-palette-color="primary" id="text-0"><path d="M10.77 0.42L10.77 0.42Q7.03 0.42 5.03-2.66 3.03-5.74 3.03-12.79L3.03-12.79 3.03-30.81Q3.03-33.64 3.43-35.95 3.83-38.26 4.81-39.94 5.79-41.63 7.48-42.53 9.18-43.43 11.77-43.43L11.77-43.43Q14.45-43.43 16.05-42.52 17.65-41.6 18.48-39.92 19.31-38.23 19.58-35.89 19.85-33.54 19.85-30.71L19.85-30.71 19.85-27.39 14.97-27.39 14.97-32.98Q14.97-36.11 14.34-37.61 13.72-39.11 11.77-39.11L11.77-39.11Q9.69-39.11 8.89-37.33 8.08-35.55 8.08-31.03L8.08-31.03 8.08-12.96Q8.08-8.03 8.75-5.91 9.42-3.78 11.62-3.78L11.62-3.78Q13.72-3.78 14.47-5.92 15.21-8.06 15.21-13.06L15.21-13.06 15.21-18.65 11.72-18.65 11.72-22.56 19.85-22.56 19.85 0 17.19 0 16.5-3.32Q15.82-1.51 14.34-0.55 12.87 0.42 10.77 0.42ZM31.54 0L26.51 0 26.51-36.62 31.54-36.62 31.54-32.54Q32.18-34.67 33.75-35.86 35.32-37.06 37.77-37.06L37.77-37.06Q37.81-37.06 37.83-36.41 37.84-35.77 37.84-34.94 37.84-34.11 37.84-33.46 37.84-32.81 37.84-32.81L37.84-32.81Q36.67-32.81 35.5-32.53 34.32-32.25 33.3-31.58 32.27-30.91 31.54-29.76L31.54-29.76 31.54 0ZM47.63 0.32L47.63 0.32Q44.31 0.32 42.84-2.26 41.38-4.83 41.35-9.4L41.35-9.4 41.35-12.96Q41.35-15.38 42.18-16.98 43.01-18.58 44.53-19.65 46.04-20.73 48.09-21.59 50.14-22.46 52.58-23.44L52.58-23.44 52.58-26.27Q52.58-28.61 52.44-30.07 52.29-31.52 51.69-32.2 51.09-32.89 49.78-32.89L49.78-32.89Q48.48-32.89 47.83-32.2 47.19-31.52 46.99-30.05 46.8-28.59 46.8-26.25L46.8-26.25 46.8-24.98 41.82-24.98 41.82-26.03Q41.82-28.37 42.11-30.38 42.4-32.4 43.23-33.89 44.06-35.38 45.66-36.22 47.26-37.06 49.87-37.06L49.87-37.06Q52.36-37.06 53.89-36.27 55.41-35.47 56.23-33.94 57.05-32.4 57.34-30.14 57.64-27.88 57.64-24.93L57.64-24.93 57.64 0 52.61 0 52.61-3.17Q52.39-2.44 51.75-1.62 51.12-0.81 50.09-0.24 49.07 0.32 47.63 0.32ZM49.04-3.74L49.04-3.74Q50.36-3.74 51.31-4.58 52.27-5.42 52.58-6.25L52.58-6.25 52.58-20.19Q50.7-19.36 49.49-18.69 48.29-18.02 47.61-17.29 46.94-16.55 46.67-15.53 46.41-14.5 46.41-12.94L46.41-12.94 46.41-9.55Q46.41-6.45 46.94-5.09 47.48-3.74 49.04-3.74ZM69.21 6.69L64.2 6.69 64.2-36.62 69.21-36.62 69.21-33.57Q69.94-35.38 71.37-36.16 72.8-36.94 74.28-36.94L74.28-36.94Q76.92-36.94 78.26-35.39 79.61-33.84 80.06-31.18 80.51-28.52 80.51-25.15L80.51-25.15 80.51-11.89Q80.51-8.42 79.99-5.63 79.46-2.83 77.96-1.2 76.46 0.44 73.48 0.44L73.48 0.44Q72.06 0.44 70.93-0.43 69.79-1.29 69.21-2.44L69.21-2.44 69.21 6.69ZM72.5-3.76L72.5-3.76Q74.31-3.78 74.89-5.58 75.48-7.37 75.48-11.21L75.48-11.21 75.48-26.03Q75.48-28.05 75.31-29.59 75.14-31.13 74.53-31.99 73.92-32.86 72.6-32.86L72.6-32.86Q71.55-32.86 70.79-32.37 70.04-31.88 69.62-30.42 69.21-28.96 69.21-26.03L69.21-26.03 69.21-11.01Q69.21-7.37 69.83-5.57 70.45-3.76 72.5-3.76ZM92.08 0L87.07 0 87.07-43.43 92.08-43.43 92.08-32.74Q92.57-34.45 94.14-35.77 95.72-37.08 97.91-37.08L97.91-37.08Q100.67-37.08 102.24-35.13 103.8-33.18 103.8-29.2L103.8-29.2 103.8 0 98.79 0 98.79-28.78Q98.79-31.03 97.98-31.9 97.16-32.76 95.79-32.76L95.79-32.76Q94.79-32.76 93.94-32.29 93.08-31.81 92.58-30.8 92.08-29.79 92.08-28.17L92.08-28.17 92.08 0ZM115.86 0L110.83 0 110.83-36.62 115.86-36.62 115.86 0ZM115.86-39.99L110.83-39.99 110.83-44.58 115.86-44.58 115.86-39.99ZM124.77 0L120.22 0 126.38-18.87 120.64-36.62 125.06-36.62 128.92-24.93 132.33-36.62 136.87-36.62 130.97-18.7 137.12 0 132.46 0 128.45-12.45 124.77 0Z" fill="#f76c5b" data-fill-palette-color="primary"></path><path d="M160.6 0L152.69 0 152.69-42.97 160.77-42.97Q164.14-42.97 166.02-41.56 167.9-40.16 168.66-37.55 169.42-34.94 169.42-31.3L169.42-31.3 169.44-12.43Q169.44-8.08 168.58-5.33 167.71-2.59 165.77-1.29 163.83 0 160.6 0L160.6 0ZM157.72-38.96L157.72-4.08 160.31-4.08Q161.68-4.08 162.58-4.68 163.48-5.27 163.94-6.91 164.39-8.54 164.39-11.65L164.39-11.65 164.39-31.42Q164.39-35.47 163.44-37.22 162.48-38.96 160.31-38.96L160.31-38.96 157.72-38.96ZM183.55 0.44L183.55 0.44Q180.91 0.44 179.31-0.48 177.72-1.39 176.89-3.08 176.06-4.76 175.77-7.12 175.49-9.47 175.49-12.33L175.49-12.33 175.49-25.27Q175.49-27.86 175.86-30.02 176.23-32.18 177.13-33.75 178.03-35.33 179.64-36.19 181.26-37.06 183.75-37.06L183.75-37.06Q186.26-37.06 187.8-36.18 189.34-35.3 190.13-33.7 190.92-32.1 191.19-29.9 191.46-27.69 191.46-25.05L191.46-25.05 191.46-18.14 180.52-18.14 180.52-10.84Q180.52-7.37 181-5.55 181.48-3.74 183.6-3.74L183.6-3.74Q184.99-3.74 185.59-4.6 186.19-5.47 186.32-7.04 186.46-8.62 186.46-10.77L186.46-10.77 186.46-13.72 191.36-13.72 191.36-12.16Q191.36-9.3 191.13-6.98 190.9-4.66 190.14-3 189.39-1.34 187.81-0.45 186.24 0.44 183.55 0.44ZM180.5-26.03L180.5-21.53 186.46-21.53 186.46-26.2Q186.46-28.39 186.31-29.9 186.16-31.4 185.6-32.17 185.04-32.93 183.75-32.93L183.75-32.93Q182.31-32.93 181.61-32.06 180.91-31.18 180.71-29.63 180.5-28.08 180.5-26.03L180.5-26.03ZM202.57 6.69L197.56 6.69 197.56-36.62 202.57-36.62 202.57-33.57Q203.3-35.38 204.73-36.16 206.16-36.94 207.64-36.94L207.64-36.94Q210.28-36.94 211.62-35.39 212.97-33.84 213.42-31.18 213.87-28.52 213.87-25.15L213.87-25.15 213.87-11.89Q213.87-8.42 213.35-5.63 212.82-2.83 211.32-1.2 209.82 0.44 206.84 0.44L206.84 0.44Q205.42 0.44 204.29-0.43 203.15-1.29 202.57-2.44L202.57-2.44 202.57 6.69ZM205.86-3.76L205.86-3.76Q207.67-3.78 208.26-5.58 208.84-7.37 208.84-11.21L208.84-11.21 208.84-26.03Q208.84-28.05 208.67-29.59 208.5-31.13 207.89-31.99 207.28-32.86 205.96-32.86L205.96-32.86Q204.91-32.86 204.15-32.37 203.4-31.88 202.98-30.42 202.57-28.96 202.57-26.03L202.57-26.03 202.57-11.01Q202.57-7.37 203.19-5.57 203.81-3.76 205.86-3.76ZM228.1 0.44L228.1 0.44Q225.51 0.44 223.9-0.45 222.29-1.34 221.42-2.99 220.56-4.64 220.24-6.95 219.92-9.25 219.92-12.11L219.92-12.11 219.92-25.07Q219.92-28.52 220.58-31.23 221.24-33.94 223.01-35.5 224.78-37.06 228.1-37.06L228.1-37.06Q230.59-37.06 232.18-36.17 233.77-35.28 234.64-33.65 235.52-32.03 235.85-29.85 236.18-27.66 236.18-25.07L236.18-25.07 236.18-12.11Q236.18-9.3 235.89-7.01 235.6-4.71 234.75-3.04 233.91-1.37 232.31-0.46 230.71 0.44 228.1 0.44ZM228.1-3.74L228.1-3.74Q229.42-3.74 230.07-4.61 230.71-5.49 230.93-7.07 231.15-8.64 231.15-10.72L231.15-10.72 231.15-26.07Q231.15-28.13 230.93-29.65 230.71-31.18 230.05-32.03 229.4-32.89 228.1-32.89L228.1-32.89Q226.73-32.89 226.05-32.03 225.37-31.18 225.16-29.65 224.95-28.13 224.95-26.07L224.95-26.07 224.95-10.72Q224.95-8.64 225.16-7.07 225.37-5.49 226.05-4.61 226.73-3.74 228.1-3.74ZM252.61 0.22L249.17 0.22Q246.82 0.22 245.63-0.34 244.43-0.9 244.02-2.15 243.6-3.39 243.6-5.44L243.6-5.44 243.6-32.62 240.26-32.62 240.26-36.33 243.6-36.33 243.6-42.97 248.61-42.97 248.61-36.33 252.56-36.33 252.56-32.62 248.61-32.62 248.61-5.88Q248.61-4.96 248.85-4.5 249.09-4.05 249.95-3.91 250.8-3.76 252.61-3.76L252.61-3.76 252.61 0.22Z" fill="#00d1cd" data-fill-palette-color="secondary"></path></g></svg></g></svg></g></svg></g></svg></g><g transform="matrix(1,0,0,1,433.76887096303517,0)"><svg viewBox="0 0 197.24639879363792 197.24639879363792" height="197.24639879363792" width="197.24639879363792"><g><svg></svg></g><g id="icon-0"><svg viewBox="0 0 197.24639879363792 197.24639879363792" height="197.24639879363792" width="197.24639879363792"><g><path d="M0 98.623c0-54.468 44.155-98.623 98.623-98.623 54.468 0 98.623 44.155 98.623 98.623 0 54.468-44.155 98.623-98.623 98.623-54.468 0-98.623-44.155-98.623-98.623zM98.623 189.941c50.433 0 91.318-40.884 91.318-91.318 0-50.433-40.884-91.318-91.318-91.317-50.433 0-91.318 40.884-91.317 91.317 0 50.433 40.884 91.318 91.317 91.318z" data-fill-palette-color="accent" fill="#00d1cd" stroke="transparent"></path></g><g transform="matrix(1,0,0,1,41.55013542836722,49.19520886874974)"><svg viewBox="0 0 114.14612793690348 98.85598105613845" height="98.85598105613845" width="114.14612793690348"><g><svg xmlns="http://www.w3.org/2000/svg" xmlns:xlink="http://www.w3.org/1999/xlink" version="1.1" x="0" y="0" viewBox="11.393 16.565 77.214 66.87100000000001" enable-background="new 0 0 100 100" xml:space="preserve" height="98.85598105613845" width="114.14612793690348" class="icon-dxe-0" data-fill-palette-color="accent" id="dxe-0"><g fill="#00d1cd" data-fill-palette-color="accent"><path fill="none" d="M87.453 50L74.231 27.099V27.599H65.053L57.148 35.505A7.2 7.2 0 0 1 58.18 39.214C58.18 43.212 54.928 46.464 50.93 46.464 46.933 46.464 43.68 43.212 43.68 39.214 43.68 35.217 46.933 31.964 50.93 31.964A7.2 7.2 0 0 1 55.11 33.301L63.811 24.599H72.788L68.726 17.565H45.251V30.206L31.295 44.16A7.2 7.2 0 0 1 32.245 47.734C32.245 51.732 28.992 54.984 24.995 54.984 20.997 54.984 17.745 51.732 17.745 47.734 17.745 43.737 20.997 40.484 24.995 40.484 26.607 40.484 28.094 41.02 29.3 41.914L42.251 28.963V17.564H31.273L12.547 50 22.477 67.198 39.672 50.004H58.295C58.987 46.724 61.903 44.254 65.387 44.254 69.384 44.254 72.637 47.506 72.637 51.504 72.637 55.501 69.384 58.754 65.387 58.754 61.904 58.754 58.988 56.283 58.295 53.004H40.914L24.029 69.889 31.273 82.436H44.543V76.248C41.263 75.555 38.793 72.64 38.793 69.156 38.793 65.158 42.045 61.906 46.043 61.906 49.526 61.906 52.441 64.377 53.135 67.656H77.083V67.961z"></path><path fill="none" d="M69.637 51.504A4.255 4.255 0 0 0 65.387 47.254 4.254 4.254 0 0 0 61.137 51.504 4.255 4.255 0 0 0 65.387 55.754 4.256 4.256 0 0 0 69.637 51.504"></path><path fill="none" d="M47.543 76.248V82.436H68.727L75.528 70.657H53.135A7.27 7.27 0 0 1 47.543 76.248"></path><path fill="none" d="M50.293 69.156A4.255 4.255 0 0 0 46.043 64.906C43.699 64.906 41.793 66.812 41.793 69.156S43.699 73.406 46.043 73.406A4.255 4.255 0 0 0 50.293 69.156"></path><path fill="none" d="M20.745 47.734A4.254 4.254 0 0 0 24.995 51.984C27.338 51.984 29.245 50.078 29.245 47.734S27.338 43.484 24.995 43.484A4.255 4.255 0 0 0 20.745 47.734"></path><path fill="none" d="M50.931 34.964A4.255 4.255 0 0 0 46.681 39.214 4.255 4.255 0 0 0 50.931 43.464 4.254 4.254 0 0 0 55.181 39.214 4.255 4.255 0 0 0 50.931 34.964"></path><path d="M74.231 25.1V24.599H73.942L69.303 16.565H30.696L11.393 50 30.697 83.436H69.304L76.682 70.657H77.083V69.962L88.607 50zM68.727 82.436H47.543V76.248A7.27 7.27 0 0 0 53.135 70.656H75.528zM46.043 73.406C43.699 73.406 41.793 71.5 41.793 69.156S43.699 64.906 46.043 64.906C48.386 64.906 50.293 66.812 50.293 69.156S48.386 73.406 46.043 73.406M53.135 67.656C52.442 64.377 49.527 61.906 46.043 61.906 42.045 61.906 38.793 65.158 38.793 69.156 38.793 72.639 41.263 75.554 44.543 76.248V82.436H31.273L24.029 69.889 40.914 53.004H58.295C58.987 56.283 61.903 58.754 65.387 58.754 69.384 58.754 72.637 55.501 72.637 51.504 72.637 47.506 69.384 44.254 65.387 44.254 61.904 44.254 58.988 46.724 58.295 50.004H39.672L22.477 67.198 12.547 50 31.274 17.564H42.252V28.962L29.3 41.914A7.2 7.2 0 0 0 24.995 40.484C20.997 40.484 17.745 43.737 17.745 47.734 17.745 51.732 20.997 54.984 24.995 54.984 28.992 54.984 32.245 51.732 32.245 47.734 32.245 46.434 31.896 45.216 31.295 44.16L45.251 30.205V17.564H68.727L72.789 24.598H63.812L55.111 33.3A7.2 7.2 0 0 0 50.931 31.963C46.934 31.963 43.681 35.216 43.681 39.213 43.681 43.211 46.934 46.463 50.931 46.463 54.929 46.463 58.181 43.211 58.181 39.213A7.2 7.2 0 0 0 57.149 35.504L65.054 27.598H74.232V27.098L87.453 50 77.083 67.961V67.656zM61.137 51.504A4.254 4.254 0 0 1 65.387 47.254 4.255 4.255 0 0 1 69.637 51.504 4.255 4.255 0 0 1 65.387 55.754 4.255 4.255 0 0 1 61.137 51.504M29.245 47.734A4.255 4.255 0 0 1 24.995 51.984C22.651 51.984 20.745 50.078 20.745 47.734S22.651 43.484 24.995 43.484A4.255 4.255 0 0 1 29.245 47.734M55.181 39.214A4.254 4.254 0 0 1 50.931 43.464 4.255 4.255 0 0 1 46.681 39.214 4.255 4.255 0 0 1 50.931 34.964 4.255 4.255 0 0 1 55.181 39.214" fill="#00d1cd" data-fill-palette-color="accent"></path></g></svg></g></svg></g></svg></g></svg></g></svg></g><defs></defs></svg><rect width="395.52" height="123.63392676843324" fill="none" stroke="none" visibility="hidden"></rect></g></svg></g></svg>